<svg width="145" height="181" viewBox="0 0 145 181" fill="none" xmlns="http://www.w3.org/2000/svg">
<rect y="67.3622" width="37.6772" height="107.323" fill="#D9D8FF"/>
<rect x="53.6616" y="37.6772" width="37.6772" height="137.008" fill="#7B79FF"/>
<rect x="107.323" width="37.6772" height="174.685" fill="#271FE0"/>
<path d="M45.6694 67.3622L70.3886 107.608H20.9502L45.6694 67.3622Z" fill="white"/>
<path d="M99.3307 37.6772L124.05 77.9232H74.6114L99.3307 37.6772Z" fill="white"/>
<path d="M10.0381 162V133.6H22.0781C23.3848 133.6 24.5848 133.867 25.6781 134.4C26.7981 134.933 27.7581 135.653 28.5581 136.56C29.3581 137.467 29.9848 138.48 30.4381 139.6C30.8915 140.72 31.1181 141.867 31.1181 143.04C31.1181 144.64 30.7448 146.16 29.9981 147.6C29.2515 149.04 28.2115 150.213 26.8781 151.12C25.5715 152.027 24.0381 152.48 22.2781 152.48H15.5581V162H10.0381ZM15.5581 147.64H21.9581C22.9715 147.64 23.8115 147.227 24.4781 146.4C25.1715 145.547 25.5181 144.427 25.5181 143.04C25.5181 141.573 25.1315 140.44 24.3581 139.64C23.5848 138.84 22.7048 138.44 21.7181 138.44H15.5581V147.64Z" fill="white"/>
<path d="M10.0381 162V133.6H22.0781C23.3848 133.6 24.5848 133.867 25.6781 134.4C26.7981 134.933 27.7581 135.653 28.5581 136.56C29.3581 137.467 29.9848 138.48 30.4381 139.6C30.8915 140.72 31.1181 141.867 31.1181 143.04C31.1181 144.64 30.7448 146.16 29.9981 147.6C29.2515 149.04 28.2115 150.213 26.8781 151.12C25.5715 152.027 24.0381 152.48 22.2781 152.48H15.5581V162H10.0381ZM15.5581 147.64H21.9581C22.9715 147.64 23.8115 147.227 24.4781 146.4C25.1715 145.547 25.5181 144.427 25.5181 143.04C25.5181 141.573 25.1315 140.44 24.3581 139.64C23.5848 138.84 22.7048 138.44 21.7181 138.44H15.5581V147.64Z" fill="white"/>
<path d="M10.0381 162V133.6H22.0781C23.3848 133.6 24.5848 133.867 25.6781 134.4C26.7981 134.933 27.7581 135.653 28.5581 136.56C29.3581 137.467 29.9848 138.48 30.4381 139.6C30.8915 140.72 31.1181 141.867 31.1181 143.04C31.1181 144.64 30.7448 146.16 29.9981 147.6C29.2515 149.04 28.2115 150.213 26.8781 151.12C25.5715 152.027 24.0381 152.48 22.2781 152.48H15.5581V162H10.0381ZM15.5581 147.64H21.9581C22.9715 147.64 23.8115 147.227 24.4781 146.4C25.1715 145.547 25.5181 144.427 25.5181 143.04C25.5181 141.573 25.1315 140.44 24.3581 139.64C23.5848 138.84 22.7048 138.44 21.7181 138.44H15.5581V147.64Z" fill="white"/>
<path d="M67.805 133.6H73.405L83.845 162H78.165L75.525 154.92H65.605L63.005 162H57.325L67.805 133.6ZM74.525 151.04L70.605 139.32L66.525 151.04H74.525Z" fill="white"/>
<path d="M67.805 133.6H73.405L83.845 162H78.165L75.525 154.92H65.605L63.005 162H57.325L67.805 133.6ZM74.525 151.04L70.605 139.32L66.525 151.04H74.525Z" fill="white"/>
<path d="M67.805 133.6H73.405L83.845 162H78.165L75.525 154.92H65.605L63.005 162H57.325L67.805 133.6ZM74.525 151.04L70.605 139.32L66.525 151.04H74.525Z" fill="white"/>
<path d="M123.515 162V133.6H129.035V162H123.515Z" fill="white"/>
<path d="M123.515 162V133.6H129.035V162H123.515Z" fill="white"/>
<path d="M123.515 162V133.6H129.035V162H123.515Z" fill="white"/>
</svg>
