<svg width="294" height="200" viewBox="0 0 294 200" fill="none" xmlns="http://www.w3.org/2000/svg">
<rect y="77.6834" width="38.329" height="109.18" fill="#D9D8FF"/>
<rect x="54.59" y="47.4847" width="38.329" height="139.378" fill="#7B79FF"/>
<rect x="109.18" y="9.1557" width="38.329" height="177.707" fill="#271FE0"/>
<path d="M46.4595 77.6834L71.6064 118.626H21.3126L46.4595 77.6834Z" fill="white"/>
<path d="M101.049 47.4847L126.196 88.4271H75.9022L101.049 47.4847Z" fill="white"/>
<path d="M160.143 48V19.6H172.183C173.49 19.6 174.69 19.8667 175.783 20.4C176.903 20.9333 177.863 21.6533 178.663 22.56C179.463 23.4667 180.09 24.48 180.543 25.6C180.996 26.72 181.223 27.8667 181.223 29.04C181.223 30.64 180.85 32.16 180.103 33.6C179.356 35.04 178.316 36.2133 176.983 37.12C175.676 38.0267 174.143 38.48 172.383 38.48H165.663V48H160.143ZM165.663 33.64H172.063C173.076 33.64 173.916 33.2267 174.583 32.4C175.276 31.5467 175.623 30.4267 175.623 29.04C175.623 27.5733 175.236 26.44 174.463 25.64C173.69 24.84 172.81 24.44 171.823 24.44H165.663V33.64ZM185.385 18.8H187.425V43.88C187.425 44.84 187.625 45.5067 188.025 45.88C188.425 46.2267 188.945 46.4 189.585 46.4C190.012 46.4 190.452 46.36 190.905 46.28C191.358 46.2 191.758 46.0933 192.105 45.96L192.505 47.6C192.052 47.76 191.492 47.9067 190.825 48.04C190.158 48.1733 189.585 48.24 189.105 48.24C187.985 48.24 187.078 47.9067 186.385 47.24C185.718 46.5467 185.385 45.6267 185.385 44.48V18.8ZM193.856 42C193.856 40.7733 194.216 39.6933 194.936 38.76C195.683 37.8267 196.71 37.1067 198.016 36.6C199.35 36.0667 200.87 35.8 202.576 35.8C203.643 35.8 204.75 35.8933 205.896 36.08C207.07 36.2667 208.096 36.52 208.976 36.84V34.88C208.976 32.96 208.416 31.4267 207.296 30.28C206.176 29.1333 204.656 28.56 202.736 28.56C201.696 28.56 200.616 28.7733 199.496 29.2C198.376 29.6267 197.23 30.24 196.056 31.04L195.216 29.6C197.936 27.76 200.51 26.84 202.936 26.84C205.39 26.84 207.336 27.5733 208.776 29.04C210.243 30.5067 210.976 32.5067 210.976 35.04V45.36C210.976 46 211.27 46.3333 211.856 46.36V48C211.35 48.0533 211.016 48.0667 210.856 48.04C210.35 47.9867 209.95 47.7733 209.656 47.4C209.39 47.0267 209.243 46.64 209.216 46.24V44.6C208.256 45.8 207.016 46.7333 205.496 47.4C204.003 48.0667 202.43 48.4 200.776 48.4C199.47 48.4 198.283 48.12 197.216 47.56C196.176 46.9733 195.35 46.2 194.736 45.24C194.15 44.28 193.856 43.2 193.856 42ZM208.176 43.72C208.71 43.0533 208.976 42.4267 208.976 41.84V38.4C207.056 37.6533 204.99 37.28 202.776 37.28C200.67 37.28 198.976 37.7067 197.696 38.56C196.416 39.3867 195.776 40.4933 195.776 41.88C195.776 42.76 196.003 43.5733 196.456 44.32C196.91 45.0667 197.536 45.6667 198.336 46.12C199.163 46.5733 200.11 46.8 201.176 46.8C202.67 46.8 204.043 46.52 205.296 45.96C206.55 45.3733 207.51 44.6267 208.176 43.72ZM234.061 48H232.061V36.4C232.061 33.7333 231.674 31.7867 230.901 30.56C230.127 29.3067 228.927 28.68 227.301 28.68C226.127 28.68 224.981 28.96 223.861 29.52C222.741 30.08 221.754 30.8533 220.901 31.84C220.047 32.8 219.434 33.8933 219.061 35.12V48H217.061V27.2H218.941V32.16C219.767 30.5867 220.994 29.3067 222.621 28.32C224.274 27.3333 226.021 26.84 227.861 26.84C230.127 26.84 231.727 27.64 232.661 29.24C233.594 30.84 234.061 33.1067 234.061 36.04V48ZM248.948 48.4C247.001 48.4 245.241 47.9067 243.668 46.92C242.121 45.9333 240.894 44.6133 239.988 42.96C239.108 41.3067 238.668 39.4933 238.668 37.52C238.668 35.5733 239.108 33.8 239.988 32.2C240.868 30.5733 242.081 29.28 243.628 28.32C245.174 27.3333 246.908 26.84 248.828 26.84C250.801 26.84 252.548 27.3333 254.068 28.32C255.614 29.28 256.828 30.5733 257.708 32.2C258.588 33.8267 259.028 35.6 259.028 37.52C259.028 37.84 259.014 38.1333 258.988 38.4H240.748C240.854 40 241.294 41.44 242.068 42.72C242.841 43.9733 243.828 44.9733 245.028 45.72C246.254 46.44 247.588 46.8 249.028 46.8C250.468 46.8 251.828 46.4267 253.108 45.68C254.388 44.9333 255.281 43.9733 255.788 42.8L257.548 43.28C257.148 44.2667 256.508 45.1467 255.628 45.92C254.774 46.6933 253.761 47.3067 252.588 47.76C251.441 48.1867 250.228 48.4 248.948 48.4ZM240.668 36.84H257.108C257.001 35.2133 256.561 33.7733 255.788 32.52C255.041 31.24 254.068 30.2533 252.868 29.56C251.668 28.84 250.334 28.48 248.868 28.48C247.401 28.48 246.068 28.84 244.868 29.56C243.668 30.28 242.694 31.28 241.948 32.56C241.201 33.8133 240.774 35.24 240.668 36.84ZM261.708 42C261.708 40.7733 262.068 39.6933 262.788 38.76C263.535 37.8267 264.561 37.1067 265.868 36.6C267.201 36.0667 268.721 35.8 270.428 35.8C271.495 35.8 272.601 35.8933 273.748 36.08C274.921 36.2667 275.948 36.52 276.828 36.84V34.88C276.828 32.96 276.268 31.4267 275.148 30.28C274.028 29.1333 272.508 28.56 270.588 28.56C269.548 28.56 268.468 28.7733 267.348 29.2C266.228 29.6267 265.081 30.24 263.908 31.04L263.068 29.6C265.788 27.76 268.361 26.84 270.788 26.84C273.241 26.84 275.188 27.5733 276.628 29.04C278.095 30.5067 278.828 32.5067 278.828 35.04V45.36C278.828 46 279.121 46.3333 279.708 46.36V48C279.201 48.0533 278.868 48.0667 278.708 48.04C278.201 47.9867 277.801 47.7733 277.508 47.4C277.241 47.0267 277.095 46.64 277.068 46.24V44.6C276.108 45.8 274.868 46.7333 273.348 47.4C271.855 48.0667 270.281 48.4 268.628 48.4C267.321 48.4 266.135 48.12 265.068 47.56C264.028 46.9733 263.201 46.2 262.588 45.24C262.001 44.28 261.708 43.2 261.708 42ZM276.028 43.72C276.561 43.0533 276.828 42.4267 276.828 41.84V38.4C274.908 37.6533 272.841 37.28 270.628 37.28C268.521 37.28 266.828 37.7067 265.548 38.56C264.268 39.3867 263.628 40.4933 263.628 41.88C263.628 42.76 263.855 43.5733 264.308 44.32C264.761 45.0667 265.388 45.6667 266.188 46.12C267.015 46.5733 267.961 46.8 269.028 46.8C270.521 46.8 271.895 46.52 273.148 45.96C274.401 45.3733 275.361 44.6267 276.028 43.72Z" fill="#212134"/>
<path d="M160.827 180.249V151.849H166.347V180.249H160.827ZM189.433 180.249H187.433V168.649C187.433 165.982 187.046 164.036 186.273 162.809C185.499 161.556 184.299 160.929 182.673 160.929C181.499 160.929 180.353 161.209 179.233 161.769C178.113 162.329 177.126 163.102 176.273 164.089C175.419 165.049 174.806 166.142 174.433 167.369V180.249H172.433V159.449H174.312V164.409C175.139 162.836 176.366 161.556 177.993 160.569C179.646 159.582 181.393 159.089 183.233 159.089C185.499 159.089 187.099 159.889 188.033 161.489C188.966 163.089 189.433 165.356 189.433 168.289V180.249ZM201.411 180.249L192.731 159.449H194.851L202.491 178.129L210.171 159.449H212.171L203.491 180.249H201.411ZM216.143 154.729V151.049H218.143V154.729H216.143ZM216.143 180.249V159.449H218.143V180.249H216.143ZM233.265 180.649C231.318 180.649 229.558 180.156 227.985 179.169C226.438 178.182 225.211 176.862 224.305 175.209C223.425 173.556 222.985 171.742 222.985 169.769C222.985 167.822 223.425 166.049 224.305 164.449C225.185 162.822 226.398 161.529 227.945 160.569C229.491 159.582 231.225 159.089 233.145 159.089C235.118 159.089 236.865 159.582 238.385 160.569C239.931 161.529 241.145 162.822 242.025 164.449C242.905 166.076 243.345 167.849 243.345 169.769C243.345 170.089 243.331 170.382 243.305 170.649H225.065C225.171 172.249 225.611 173.689 226.385 174.969C227.158 176.222 228.145 177.222 229.345 177.969C230.571 178.689 231.905 179.049 233.345 179.049C234.785 179.049 236.145 178.676 237.425 177.929C238.705 177.182 239.598 176.222 240.105 175.049L241.865 175.529C241.465 176.516 240.825 177.396 239.945 178.169C239.091 178.942 238.078 179.556 236.905 180.009C235.758 180.436 234.545 180.649 233.265 180.649ZM224.985 169.089H241.425C241.318 167.462 240.878 166.022 240.105 164.769C239.358 163.489 238.385 162.502 237.185 161.809C235.985 161.089 234.651 160.729 233.185 160.729C231.718 160.729 230.385 161.089 229.185 161.809C227.985 162.529 227.011 163.529 226.265 164.809C225.518 166.062 225.091 167.489 224.985 169.089ZM257.585 161.249C255.718 161.302 254.078 161.862 252.665 162.929C251.278 163.969 250.305 165.409 249.745 167.249V180.249H247.745V159.449H249.665V164.569C250.385 163.129 251.345 161.942 252.545 161.009C253.745 160.076 255.012 159.542 256.345 159.409C256.612 159.409 256.838 159.409 257.025 159.409C257.238 159.382 257.425 159.369 257.585 159.369V161.249ZM270.658 179.249C270.471 179.356 269.978 179.596 269.178 179.969C268.378 180.316 267.418 180.489 266.298 180.489C265.204 180.489 264.244 180.169 263.418 179.529C262.618 178.889 262.218 177.969 262.218 176.769V161.089H259.298V159.449H262.218V152.329H264.218V159.449H269.058V161.089H264.218V176.289C264.271 177.062 264.551 177.649 265.058 178.049C265.564 178.422 266.151 178.609 266.818 178.609C267.644 178.609 268.364 178.476 268.978 178.209C269.591 177.916 269.951 177.729 270.058 177.649L270.658 179.249ZM282.64 180.649C280.693 180.649 278.933 180.156 277.36 179.169C275.813 178.182 274.586 176.862 273.68 175.209C272.8 173.556 272.36 171.742 272.36 169.769C272.36 167.822 272.8 166.049 273.68 164.449C274.56 162.822 275.773 161.529 277.32 160.569C278.866 159.582 280.6 159.089 282.52 159.089C284.493 159.089 286.24 159.582 287.76 160.569C289.306 161.529 290.52 162.822 291.4 164.449C292.28 166.076 292.72 167.849 292.72 169.769C292.72 170.089 292.706 170.382 292.68 170.649H274.44C274.546 172.249 274.986 173.689 275.76 174.969C276.533 176.222 277.52 177.222 278.72 177.969C279.946 178.689 281.28 179.049 282.72 179.049C284.16 179.049 285.52 178.676 286.8 177.929C288.08 177.182 288.973 176.222 289.48 175.049L291.24 175.529C290.84 176.516 290.2 177.396 289.32 178.169C288.466 178.942 287.453 179.556 286.28 180.009C285.133 180.436 283.92 180.649 282.64 180.649ZM274.36 169.089H290.8C290.693 167.462 290.253 166.022 289.48 164.769C288.733 163.489 287.76 162.502 286.56 161.809C285.36 161.089 284.026 160.729 282.56 160.729C281.093 160.729 279.76 161.089 278.56 161.809C277.36 162.529 276.386 163.529 275.64 164.809C274.893 166.062 274.466 167.489 274.36 169.089Z" fill="#212134"/>
<path d="M168.25 88.7765H173.85L184.29 117.176H178.61L175.97 110.096H166.05L163.45 117.176H157.77L168.25 88.7765ZM174.97 106.216L171.05 94.4965L166.97 106.216H174.97ZM204.565 117.176H202.565V105.576C202.565 100.43 200.845 97.8565 197.405 97.8565C196.285 97.8565 195.192 98.1365 194.125 98.6965C193.059 99.2565 192.112 100.03 191.285 101.016C190.485 101.976 189.912 103.07 189.565 104.296V117.176H187.565V87.9765H189.565V101.336C190.419 99.7098 191.605 98.4165 193.125 97.4565C194.645 96.4965 196.259 96.0165 197.965 96.0165C200.285 96.0165 201.965 96.8431 203.005 98.4965C204.045 100.123 204.565 102.363 204.565 105.216V117.176ZM219.332 117.576C217.385 117.576 215.639 117.083 214.092 116.096C212.572 115.11 211.372 113.803 210.492 112.176C209.612 110.55 209.172 108.763 209.172 106.816C209.172 105.35 209.425 103.976 209.932 102.696C210.439 101.39 211.159 100.243 212.092 99.2565C213.025 98.2431 214.105 97.4565 215.332 96.8965C216.559 96.3098 217.892 96.0165 219.332 96.0165C220.772 96.0165 222.105 96.3098 223.332 96.8965C224.559 97.4565 225.625 98.2431 226.532 99.2565C227.465 100.243 228.185 101.39 228.692 102.696C229.225 103.976 229.492 105.35 229.492 106.816C229.492 108.763 229.039 110.55 228.132 112.176C227.252 113.803 226.039 115.11 224.492 116.096C222.972 117.083 221.252 117.576 219.332 117.576ZM211.172 106.896C211.172 108.523 211.532 110.016 212.252 111.376C212.999 112.71 213.985 113.776 215.212 114.576C216.439 115.376 217.799 115.776 219.292 115.776C220.785 115.776 222.145 115.376 223.372 114.576C224.625 113.75 225.612 112.656 226.332 111.296C227.079 109.936 227.452 108.43 227.452 106.776C227.452 105.15 227.079 103.656 226.332 102.296C225.612 100.936 224.625 99.8565 223.372 99.0565C222.145 98.2298 220.799 97.8165 219.332 97.8165C217.839 97.8165 216.479 98.2298 215.252 99.0565C214.025 99.8831 213.039 100.99 212.292 102.376C211.545 103.736 211.172 105.243 211.172 106.896ZM244.124 98.1765C242.257 98.2298 240.617 98.7898 239.204 99.8565C237.817 100.896 236.844 102.336 236.284 104.176V117.176H234.284V96.3765H236.204V101.496C236.924 100.056 237.884 98.8698 239.084 97.9365C240.284 97.0031 241.551 96.4698 242.884 96.3365C243.151 96.3365 243.377 96.3365 243.564 96.3365C243.777 96.3098 243.964 96.2965 244.124 96.2965V98.1765ZM257.757 98.1765C255.89 98.2298 254.25 98.7898 252.837 99.8565C251.45 100.896 250.477 102.336 249.917 104.176V117.176H247.917V96.3765H249.837V101.496C250.557 100.056 251.517 98.8698 252.717 97.9365C253.917 97.0031 255.184 96.4698 256.517 96.3365C256.784 96.3365 257.01 96.3365 257.197 96.3365C257.41 96.3098 257.597 96.2965 257.757 96.2965V98.1765ZM259.673 111.176C259.673 109.95 260.033 108.87 260.753 107.936C261.5 107.003 262.527 106.283 263.833 105.776C265.167 105.243 266.687 104.976 268.393 104.976C269.46 104.976 270.567 105.07 271.713 105.256C272.887 105.443 273.913 105.696 274.793 106.016V104.056C274.793 102.136 274.233 100.603 273.113 99.4565C271.993 98.3098 270.473 97.7365 268.553 97.7365C267.513 97.7365 266.433 97.9498 265.313 98.3765C264.193 98.8031 263.047 99.4165 261.873 100.216L261.033 98.7765C263.753 96.9365 266.327 96.0165 268.753 96.0165C271.207 96.0165 273.153 96.7498 274.593 98.2165C276.06 99.6831 276.793 101.683 276.793 104.216V114.536C276.793 115.176 277.087 115.51 277.673 115.536V117.176C277.167 117.23 276.833 117.243 276.673 117.216C276.167 117.163 275.767 116.95 275.473 116.576C275.207 116.203 275.06 115.816 275.033 115.416V113.776C274.073 114.976 272.833 115.91 271.313 116.576C269.82 117.243 268.247 117.576 266.593 117.576C265.287 117.576 264.1 117.296 263.033 116.736C261.993 116.15 261.167 115.376 260.553 114.416C259.967 113.456 259.673 112.376 259.673 111.176ZM273.993 112.896C274.527 112.23 274.793 111.603 274.793 111.016V107.576C272.873 106.83 270.807 106.456 268.593 106.456C266.487 106.456 264.793 106.883 263.513 107.736C262.233 108.563 261.593 109.67 261.593 111.056C261.593 111.936 261.82 112.75 262.273 113.496C262.727 114.243 263.353 114.843 264.153 115.296C264.98 115.75 265.927 115.976 266.993 115.976C268.487 115.976 269.86 115.696 271.113 115.136C272.367 114.55 273.327 113.803 273.993 112.896Z" fill="#212134"/>
</svg>
